<svg width="351" height="351" viewBox="0 0 351 351" fill="none" xmlns="http://www.w3.org/2000/svg">
    <path d="M128.711 187.875C128.711 187.599 128.935 187.375 129.211 187.375H168.39C168.666 187.375 168.89 187.599 168.89 187.875V220.767H209.094C209.37 220.767 209.594 220.99 209.594 221.267V252.584C209.594 252.86 209.37 253.084 209.094 253.084C208.818 253.084 208.594 252.86 208.594 252.584V221.767H168.39C168.114 221.767 167.89 221.543 167.89 221.267V188.375H129.211C128.935 188.375 128.711 188.151 128.711 187.875Z" fill="#0C296E"/>
    <g filter="url(#filter0_f)">
    <path d="M194.658 329.203C205.375 329.203 214.062 320.515 214.062 309.799C214.062 299.082 205.375 290.395 194.658 290.395C183.941 290.395 175.254 299.082 175.254 309.799C175.254 320.515 183.941 329.203 194.658 329.203Z" fill="#FFC60A"/>
    </g>
    <path d="M48.0859 294.999C62.6024 292.035 76.4127 294.818 87.8184 302.32C100.181 310.427 106.801 323.434 121.318 329.061C127.3 331.36 134 332.207 140.62 332.872C173.162 336.381 201.041 333.235 233.903 332.872L262.822 334.036C230.396 332.921 195.336 336.381 162.793 332.872C156.173 332.146 149.473 331.36 143.491 329.061C128.975 323.434 122.275 310.427 109.992 302.32C98.6659 294.878 82.315 292.035 67.7985 294.999H48.0859Z" fill="#00D6B9"/>
    <path d="M78.1686 293.85H54.7988C54.7988 293.85 51.781 293.125 43.8847 296.513C31.4275 301.857 26.2861 313.091 26.2861 313.091H49.8822C49.8822 313.091 54.7988 297.81 78.1686 293.85Z" fill="#0C296E"/>
    <path d="M39.8232 82.194C39.8232 57.5102 59.8334 37.5 84.5173 37.5C109.201 37.5 129.211 57.5102 129.211 82.194V187.876H39.8232V82.194Z" fill="#0C296E"/>
    <path d="M39.3232 82.194C39.3232 57.2341 59.5573 37 84.5173 37C109.477 37 129.711 57.2341 129.711 82.194V187.876C129.711 188.152 129.487 188.376 129.211 188.376H39.8232C39.5471 188.376 39.3232 188.152 39.3232 187.876V82.194ZM84.5173 38C60.1096 38 40.3232 57.7864 40.3232 82.194V187.376H128.711V82.194C128.711 57.7863 108.925 38 84.5173 38Z" fill="#0C296E"/>
    <path d="M275.09 334.45C242.103 331.061 200.253 326.609 169.306 322.045C159.126 320.545 148.778 318.999 139.63 315.348C130.482 311.697 122.549 305.557 120.58 297.959C119.356 293.23 120.494 288.319 119.56 283.555C116.944 270.218 94.7007 257.704 73.7583 250.186V253.694L43.4138 246.334V264.248C63.8501 264.248 117.726 283.528 121.901 304.817C122.835 309.582 121.697 314.493 122.921 319.222C127.644 331.98 162.633 334.453 173.009 334.453C207.562 334.453 241.157 334.031 273.511 334.289" fill="#3370FF"/>
    <g filter="url(#filter1_f)">
    <path d="M43.1602 246.341V242.662C50.0277 242.662 66.2171 247.568 73.4533 250.021V254.068C73.4533 254.068 52.7267 247.69 43.1602 246.341Z" fill="#3370FF"/>
    </g>
    <path d="M286.21 304.992L200.922 246.967L191.078 251.97L286.21 304.992Z" fill="#0C296E"/>
    <path d="M200.695 246.521C200.858 246.438 201.052 246.451 201.203 246.553L286.491 304.579C286.712 304.729 286.776 305.027 286.635 305.255C286.495 305.482 286.2 305.559 285.967 305.429L190.835 252.406C190.673 252.316 190.575 252.145 190.578 251.96C190.582 251.775 190.687 251.608 190.852 251.524L200.695 246.521ZM192.142 251.99L276.638 299.085L200.885 247.546L192.142 251.99Z" fill="#0C296E"/>
    <path d="M190.639 251.725C190.774 251.484 191.078 251.398 191.32 251.532L286.451 304.551C286.693 304.685 286.779 304.99 286.645 305.231C271.871 331.744 238.401 341.26 211.887 326.483C185.378 311.709 175.862 278.239 190.639 251.725ZM191.271 252.65C177.11 278.611 186.493 311.186 212.374 325.609C238.259 340.037 270.899 330.879 285.526 305.18L191.271 252.65Z" fill="#0C296E"/>
    <path d="M285.181 239.339L286.211 246.161L278.766 252.853L267.896 235.764L277.625 233.02L285.181 239.339Z" fill="white" stroke="#0C296E" stroke-miterlimit="10" stroke-linecap="round" stroke-linejoin="round"/>
    <path d="M230.422 168.791C237.014 178.139 242.517 188.624 251.659 195.387L263.112 206.175L260.087 215.87L257.801 213.917C248.977 205.603 242.865 198.837 239.349 191.668C235.832 184.499 232.756 176.99 227.707 170.804L230.422 168.791Z" fill="#00D6B9"/>
    <path d="M230.501 168.297C230.634 168.319 230.753 168.393 230.83 168.503C232.364 170.677 233.838 172.913 235.308 175.141C235.423 175.315 235.538 175.49 235.653 175.664C237.239 178.068 238.826 180.458 240.49 182.766C243.819 187.383 247.445 191.648 251.956 194.985C251.972 194.997 251.987 195.009 252.001 195.023L263.455 205.811C263.594 205.943 263.646 206.142 263.589 206.324L260.564 216.019C260.514 216.18 260.387 216.304 260.225 216.351C260.064 216.397 259.89 216.36 259.762 216.251L257.476 214.297C257.47 214.291 257.464 214.286 257.458 214.281C248.63 205.962 242.458 199.144 238.9 191.888C238.233 190.529 237.584 189.162 236.937 187.798C234.147 181.923 231.379 176.094 227.32 171.12C227.233 171.014 227.194 170.878 227.211 170.742C227.228 170.606 227.299 170.484 227.409 170.402L230.124 168.389C230.232 168.309 230.368 168.276 230.501 168.297ZM228.423 170.896C232.389 175.883 235.144 181.687 237.862 187.413C238.504 188.766 239.144 190.115 239.797 191.448C243.27 198.527 249.321 205.239 258.135 213.544L259.835 214.998L262.541 206.325L251.337 195.771C246.718 192.349 243.029 187.997 239.679 183.351C238.001 181.024 236.404 178.617 234.818 176.215C234.704 176.041 234.589 175.868 234.475 175.694C233.098 173.607 231.726 171.527 230.307 169.498L228.423 170.896Z" fill="#00D6B9"/>
    <path d="M227.5 170.5C227.1 169.7 221.667 166.167 219 164.5C219 164.333 219.1 163.9 219.5 163.5C219.9 163.1 222.667 164 224 164.5C223.667 163.833 222.8 162.2 222 161C221.2 159.8 216.667 154.833 214.5 152.5C214.5 152.167 215.7 152.6 220.5 157C225.3 161.4 229.167 166.5 230.5 168.5C229.667 169.5 227.9 171.3 227.5 170.5Z" fill="white"/>
    <path d="M214.51 151.76C214.64 151.726 214.779 151.747 214.894 151.817L216.335 152.692C216.344 152.698 216.353 152.704 216.363 152.71C222.246 156.848 226.784 162.347 230.917 168.207C231.076 168.432 231.023 168.744 230.797 168.904C230.571 169.063 230.259 169.009 230.1 168.783C225.993 162.961 221.538 157.576 215.801 153.538L215.574 153.4C215.667 153.534 215.772 153.677 215.89 153.83C216.554 154.694 217.538 155.774 218.628 156.939C218.894 157.223 219.166 157.513 219.441 157.805C220.282 158.7 221.146 159.62 221.927 160.495C222.946 161.637 223.851 162.735 224.391 163.637L224.897 164.267C225.028 164.43 225.043 164.657 224.936 164.837C224.828 165.016 224.621 165.11 224.415 165.071C223.726 164.943 223.037 164.814 222.347 164.685L222.334 164.682C221.645 164.554 220.956 164.425 220.268 164.296C220.117 164.268 219.997 164.25 219.892 164.25C219.79 164.25 219.74 164.268 219.713 164.284C219.688 164.299 219.647 164.341 219.632 164.445C219.616 164.552 219.636 164.675 219.686 164.771C219.819 165.019 220.075 165.202 220.451 165.446C221.608 166.198 222.766 166.95 223.924 167.703C225.082 168.455 226.24 169.208 227.398 169.959C227.426 169.978 227.453 169.999 227.477 170.023L227.835 170.378C228.032 170.572 228.033 170.889 227.839 171.085C227.645 171.281 227.328 171.283 227.132 171.089L226.81 170.77C225.668 170.028 224.525 169.286 223.383 168.544L223.379 168.541C222.222 167.789 221.064 167.036 219.906 166.285L219.886 166.272C219.548 166.052 219.071 165.743 218.803 165.24L218.801 165.237C218.652 164.952 218.595 164.613 218.643 164.297C218.691 163.978 218.855 163.635 219.195 163.429C219.431 163.286 219.682 163.25 219.892 163.25C220.097 163.25 220.298 163.285 220.449 163.313L220.451 163.313C221.14 163.442 221.831 163.571 222.521 163.7L222.525 163.701C222.799 163.752 223.072 163.803 223.346 163.854C222.845 163.093 222.079 162.167 221.181 161.16C220.41 160.296 219.559 159.391 218.719 158.498C218.443 158.204 218.168 157.911 217.897 157.622C216.812 156.461 215.795 155.348 215.097 154.439C214.749 153.987 214.462 153.563 214.287 153.194C214.199 153.009 214.128 152.817 214.1 152.626C214.071 152.436 214.079 152.208 214.201 151.996C214.268 151.879 214.379 151.794 214.51 151.76Z" fill="#0C296E"/>
    <path d="M257.869 192.33C256.111 193.922 254.785 196.33 251.827 198.568C251.103 199.115 253.157 198.882 252.983 199.65C252.702 200.895 251.99 204.123 252.909 205.006C253.478 205.552 254.298 205.737 255.081 205.826C257.334 206.08 258.508 206.032 260.558 205.065C272.528 200.648 271.147 196.973 257.869 192.33Z" fill="white"/>
    <path d="M257.534 191.959C257.67 191.837 257.862 191.798 258.034 191.858C261.365 193.023 263.977 194.135 265.828 195.227C267.649 196.299 268.86 197.422 269.167 198.662C269.494 199.982 268.759 201.182 267.36 202.26C265.956 203.344 263.746 204.42 260.752 205.526C259.703 206.02 258.85 206.291 257.956 206.4C257.064 206.508 256.159 206.451 255.025 206.322C254.227 206.232 253.259 206.035 252.563 205.366C252.208 205.026 252.06 204.517 251.997 204.036C251.933 203.538 251.947 202.972 251.998 202.418C252.095 201.365 252.33 200.278 252.473 199.639C252.386 199.597 252.255 199.558 252.071 199.51C252.061 199.507 252.051 199.504 252.041 199.502C251.954 199.479 251.854 199.452 251.766 199.424C251.678 199.395 251.54 199.346 251.424 199.258C251.361 199.21 251.277 199.13 251.223 199.009C251.164 198.877 251.158 198.734 251.195 198.604C251.256 198.387 251.423 198.246 251.525 198.169C252.963 197.082 254.007 195.951 254.918 194.882C255.119 194.646 255.316 194.41 255.511 194.176C256.183 193.371 256.827 192.599 257.534 191.959ZM257.989 192.902C257.424 193.446 256.898 194.076 256.31 194.781C256.108 195.022 255.899 195.273 255.679 195.531C254.842 196.513 253.871 197.574 252.581 198.614C252.729 198.66 252.892 198.721 253.032 198.806C253.153 198.879 253.295 198.991 253.39 199.162C253.493 199.346 253.518 199.553 253.471 199.76C253.33 200.384 253.089 201.473 252.994 202.509C252.946 203.029 252.938 203.513 252.989 203.907C253.043 204.318 253.15 204.544 253.255 204.645C253.697 205.069 254.369 205.242 255.137 205.329C256.256 205.455 257.064 205.501 257.835 205.407C258.599 205.315 259.352 205.081 260.345 204.613C260.358 204.606 260.371 204.601 260.385 204.596C263.365 203.496 265.465 202.459 266.75 201.468C268.044 200.471 268.378 199.633 268.196 198.902C267.995 198.09 267.119 197.148 265.32 196.088C263.604 195.076 261.159 194.022 257.989 192.902Z" fill="#0C296E"/>
    <path d="M283.293 239.075C282.229 238.709 280.829 238.075 279.876 237.477C277.003 235.678 271.696 235.363 268.409 236.19L263.592 237.584C263.592 237.584 259.714 219.911 259.88 216.528C260.046 213.145 263.777 206.678 263.777 206.678L272.741 209.762C277.121 213.001 279.496 218.386 281.804 223.398C284.286 228.786 286.923 235.586 293.18 237.979C289.324 236.335 286.111 240.364 283.293 239.075Z" fill="#00D6B9"/>
    <path d="M263.343 206.428C263.463 206.221 263.713 206.127 263.939 206.205L272.903 209.289C272.951 209.306 272.997 209.329 273.038 209.36C277.375 212.567 279.784 217.807 282.003 222.634C282.088 222.819 282.173 223.004 282.258 223.189C282.458 223.622 282.658 224.062 282.859 224.508C283.923 226.853 285.044 229.325 286.494 231.538C288.164 234.085 290.24 236.24 293.103 237.411C293.193 237.444 293.284 237.48 293.376 237.519C293.626 237.626 293.745 237.914 293.643 238.166C293.541 238.419 293.255 238.543 293.001 238.446C292.914 238.413 292.828 238.379 292.742 238.344C291.11 237.753 289.593 238.248 288.029 238.86C287.92 238.903 287.81 238.946 287.699 238.99C287.004 239.265 286.289 239.548 285.594 239.704C284.781 239.888 283.939 239.913 283.108 239.54C282.019 239.164 280.596 238.519 279.611 237.901C278.267 237.059 276.308 236.543 274.25 236.347C272.201 236.151 270.115 236.278 268.539 236.673L263.731 238.064C263.598 238.103 263.455 238.084 263.336 238.014C263.217 237.943 263.133 237.826 263.104 237.691L263.592 237.584C263.104 237.691 263.104 237.691 263.104 237.691L263.06 237.491C263.031 237.36 262.99 237.169 262.937 236.923C262.831 236.433 262.68 235.729 262.499 234.873C262.138 233.162 261.658 230.844 261.183 228.421C260.708 225.998 260.238 223.465 259.896 221.324C259.558 219.205 259.336 217.411 259.381 216.503C259.426 215.587 259.708 214.496 260.086 213.399C260.467 212.294 260.957 211.152 261.438 210.123C261.919 209.092 262.395 208.17 262.75 207.505C262.928 207.173 263.076 206.904 263.179 206.719C263.231 206.626 263.272 206.554 263.3 206.504L263.332 206.448L263.34 206.433L263.343 206.428C263.344 206.428 263.343 206.428 263.777 206.678L263.343 206.428ZM264.008 207.286C263.911 207.461 263.782 207.696 263.632 207.977C263.283 208.63 262.816 209.536 262.344 210.546C261.871 211.557 261.397 212.665 261.032 213.725C260.664 214.792 260.418 215.777 260.379 216.553C260.341 217.336 260.541 219.02 260.884 221.166C261.223 223.291 261.69 225.81 262.164 228.228C262.638 230.646 263.117 232.958 263.478 234.666C263.658 235.52 263.809 236.223 263.914 236.712C263.933 236.8 263.951 236.881 263.967 236.955L268.269 235.71C268.275 235.709 268.281 235.707 268.286 235.706C269.996 235.275 272.203 235.147 274.345 235.351C276.48 235.555 278.612 236.096 280.141 237.053C281.055 237.627 282.42 238.246 283.456 238.602C283.471 238.608 283.486 238.614 283.501 238.621C284.072 238.882 284.68 238.885 285.375 238.729C285.987 238.591 286.62 238.341 287.322 238.064C287.434 238.019 287.549 237.974 287.665 237.929C288.515 237.596 289.449 237.253 290.449 237.128C288.478 235.816 286.937 234.037 285.658 232.086C284.161 229.802 283.003 227.248 281.941 224.903C281.741 224.463 281.544 224.029 281.35 223.607C281.279 223.453 281.208 223.298 281.136 223.143C278.892 218.264 276.592 213.265 272.504 210.209L264.008 207.286Z" fill="#00D6B9"/>
    <path d="M288.074 238.267C287.143 238.662 286.164 239.109 285.182 239.338C285.182 239.338 285.787 241.477 286.267 243.408C288.21 242.998 288.528 242.869 290.733 241.927C291.893 241.432 293.115 240.047 293.381 239.349C294.345 236.782 289.791 237.536 288.074 238.267Z" fill="#0C296E"/>
    <path d="M293.994 238.457C294.047 238.792 293.989 239.151 293.849 239.525L293.848 239.527C293.679 239.971 293.251 240.551 292.75 241.064C292.241 241.584 291.592 242.104 290.929 242.387C288.707 243.336 288.356 243.479 286.371 243.898C286.107 243.953 285.847 243.79 285.782 243.529C285.543 242.568 285.273 241.555 285.062 240.78C284.957 240.393 284.866 240.067 284.802 239.837C284.77 239.722 284.745 239.631 284.727 239.569L284.701 239.475C284.663 239.343 284.681 239.202 284.751 239.084C284.82 238.967 284.935 238.882 285.068 238.851C285.882 238.662 286.696 238.313 287.525 237.958C287.642 237.907 287.76 237.857 287.878 237.807C288.793 237.417 290.433 237.028 291.749 237.072C292.392 237.093 293.075 237.22 293.529 237.619C293.771 237.831 293.939 238.112 293.994 238.457ZM285.799 239.691C285.86 239.91 285.938 240.193 286.027 240.518C286.205 241.171 286.426 241.996 286.635 242.818C288.129 242.491 288.543 242.319 290.536 241.467C291.033 241.256 291.575 240.835 292.034 240.365C292.5 239.888 292.816 239.427 292.913 239.172C293.013 238.905 293.024 238.727 293.006 238.615C292.99 238.512 292.946 238.437 292.87 238.371C292.688 238.211 292.306 238.091 291.716 238.071C290.567 238.033 289.071 238.386 288.269 238.727C288.156 238.775 288.041 238.825 287.925 238.875C287.256 239.161 286.534 239.471 285.799 239.691Z" fill="#0C296E"/>
    <path d="M232.744 262.854C231.466 266.939 230.458 270.211 230.395 270.544C230.273 271.208 229.638 273.45 226.827 271.788C220.22 267.884 209.834 262.614 209.147 261.133C208.39 259.504 216.198 262.44 220.242 263.375C225.306 264.542 227.887 263.463 228.452 259.744" fill="white"/>
    <path d="M228.455 259.744C229.02 256.022 230.749 229.499 232.063 219.782C232.208 218.719 232.374 217.599 233.031 216.754C233.999 215.509 235.812 215.199 237.338 215.587C241.515 216.647 245.393 220.044 248.865 222.519C253.079 225.522 272.787 239.128 279.412 243.793C280.539 244.587 281.695 245.392 283.021 245.758C284.347 246.123 285.905 245.968 286.899 245.012C286.899 245.012 288.147 248.69 286.146 253.813C283.874 259.63 277.337 260.782 271.771 259.77C259.634 257.093 246.59 243.575 240.141 228.938L238.734 227.198C240.75 233.392 240.049 240.214 237.991 246.393C237.072 249.159 234.616 256.875 232.743 262.854L228.455 259.744Z" fill="#0C296E"/>
    <path d="M229.01 272.949C228.296 272.904 227.607 272.673 227.01 272.279C224.94 271.059 222.48 269.689 220.09 268.359C213.63 264.769 209.65 262.509 209.09 261.409C209.013 261.272 208.979 261.114 208.993 260.957C209.008 260.8 209.069 260.651 209.17 260.529C209.76 259.849 211.62 260.319 216.39 261.729C217.94 262.189 219.54 262.669 220.75 262.949C223.59 263.609 225.56 263.529 226.75 262.699C227.213 262.341 227.594 261.888 227.868 261.371C228.143 260.853 228.303 260.284 228.34 259.699C228.35 259.634 228.372 259.572 228.406 259.515C228.44 259.459 228.485 259.41 228.538 259.371C228.591 259.332 228.651 259.304 228.715 259.288C228.779 259.272 228.845 259.269 228.91 259.279C229.04 259.301 229.157 259.373 229.235 259.479C229.313 259.586 229.347 259.718 229.33 259.849C229.278 260.566 229.073 261.262 228.728 261.892C228.383 262.522 227.906 263.07 227.33 263.499C225.87 264.499 223.65 264.619 220.52 263.899C219.27 263.609 217.66 263.129 216.1 262.659C214.162 262.012 212.176 261.517 210.16 261.179C211.24 262.289 216.36 265.179 220.53 267.459C222.92 268.789 225.39 270.159 227.47 271.389C227.751 271.604 228.076 271.755 228.421 271.831C228.767 271.907 229.125 271.906 229.47 271.829C229.694 271.677 229.884 271.479 230.025 271.248C230.166 271.017 230.257 270.758 230.29 270.489C230.35 270.159 231.15 267.559 232.66 262.739C232.678 262.676 232.709 262.618 232.75 262.567C232.792 262.516 232.843 262.474 232.9 262.443C232.958 262.413 233.022 262.394 233.087 262.388C233.152 262.382 233.218 262.389 233.28 262.409C233.343 262.429 233.402 262.46 233.453 262.503C233.504 262.545 233.546 262.597 233.577 262.655C233.607 262.714 233.626 262.778 233.632 262.844C233.638 262.91 233.63 262.976 233.61 263.039C231.61 269.529 231.3 270.539 231.28 270.669C231.221 271.098 231.064 271.508 230.821 271.867C230.578 272.226 230.256 272.524 229.88 272.739C229.608 272.87 229.312 272.942 229.01 272.949Z" fill="#0C296E"/>
    <path d="M233.14 263.421C233.035 263.422 232.933 263.386 232.85 263.321L228.56 260.211C228.485 260.158 228.427 260.085 228.391 260C228.356 259.915 228.345 259.822 228.36 259.731C228.59 258.211 229.03 252.681 229.54 246.271C230.28 237.011 231.19 225.491 231.97 219.781C232.034 218.616 232.403 217.488 233.04 216.511C233.636 215.856 234.404 215.383 235.257 215.146C236.11 214.909 237.012 214.918 237.86 215.171C241.32 216.041 244.6 218.491 247.49 220.661C248.19 221.181 248.88 221.661 249.55 222.181C251.75 223.741 258.05 228.111 264.72 232.741C270.72 236.931 276.93 241.211 280.1 243.451C281.138 244.267 282.304 244.906 283.55 245.341C284.123 245.532 284.735 245.575 285.33 245.467C285.924 245.359 286.481 245.102 286.95 244.721C287.011 244.662 287.087 244.619 287.169 244.596C287.251 244.573 287.337 244.572 287.42 244.591C287.502 244.611 287.577 244.652 287.638 244.71C287.7 244.768 287.745 244.84 287.77 244.921C287.83 245.071 289.06 248.831 287.01 254.061C284.6 260.241 277.72 261.351 272.08 260.331C260.45 257.761 247.15 244.911 240.29 229.661C241.61 236.031 240.29 242.281 238.87 246.611C237.99 249.231 235.59 256.771 233.62 263.071C233.595 263.145 233.553 263.213 233.498 263.268C233.442 263.324 233.374 263.366 233.3 263.391C233.249 263.412 233.195 263.422 233.14 263.421ZM229.39 259.581L232.87 262.111C234.62 256.541 236.99 249.111 237.92 246.301C239.51 241.531 240.92 234.381 238.66 227.421C238.626 227.311 238.631 227.192 238.674 227.085C238.718 226.978 238.797 226.89 238.898 226.834C238.999 226.779 239.116 226.76 239.23 226.782C239.343 226.803 239.446 226.863 239.52 226.951L240.93 228.691C240.959 228.724 240.983 228.761 241 228.801C247.68 243.981 260.84 256.801 272.28 259.351C277.5 260.301 283.89 259.351 286.08 253.701C287.102 251.246 287.417 248.555 286.99 245.931C286.429 246.236 285.813 246.425 285.177 246.489C284.542 246.552 283.9 246.488 283.29 246.301C281.927 245.857 280.652 245.18 279.52 244.301C276.35 242.061 270.18 237.781 264.15 233.591C257.47 228.961 251.15 224.591 248.97 223.021C248.3 222.541 247.6 222.021 246.89 221.491C243.94 219.281 240.89 216.991 237.61 216.171C236.95 215.963 236.244 215.947 235.575 216.124C234.906 216.301 234.301 216.664 233.83 217.171C233.304 218.006 233.004 218.964 232.96 219.951C232.19 225.641 231.27 237.141 230.54 246.391C230.04 252.661 229.68 257.751 229.39 259.581Z" fill="#0C296E"/>
    <path d="M319.462 319.953C319.839 321.05 319.595 322.307 319.2 323.4C318.72 324.726 317.981 325.863 317.231 327.048C316.855 327.647 316.367 328.171 315.78 328.563C314.295 329.549 313.261 329.194 310.539 330.254C310.092 330.428 307.81 332.297 308.242 332.507C309.342 333.043 314.661 333.08 315.628 332.662L326.502 327.754C327.628 327.244 328.105 325.9 327.551 324.795C326.424 322.561 324.666 319.056 323.839 317.383L319.462 319.953Z" fill="white"/>
    <path d="M312.42 333.461C310.943 333.533 309.465 333.371 308.04 332.981C307.934 332.928 307.846 332.847 307.785 332.746C307.725 332.645 307.695 332.528 307.7 332.411C307.7 331.601 310.01 329.951 310.37 329.811C311.342 329.436 312.346 329.148 313.37 328.951C314.142 328.844 314.885 328.578 315.55 328.171C316.077 327.814 316.521 327.346 316.85 326.801L316.97 326.621C317.694 325.568 318.297 324.438 318.77 323.251C319.208 322.274 319.3 321.177 319.03 320.141C318.994 320.03 318.997 319.911 319.037 319.803C319.076 319.694 319.151 319.602 319.25 319.541L323.63 316.971C323.689 316.935 323.756 316.913 323.824 316.904C323.893 316.896 323.963 316.901 324.03 316.921C324.094 316.942 324.154 316.975 324.206 317.02C324.258 317.065 324.3 317.119 324.33 317.181C325.16 318.851 326.92 322.361 328.04 324.591C328.201 324.913 328.296 325.265 328.318 325.625C328.34 325.984 328.289 326.345 328.169 326.685C328.049 327.025 327.861 327.337 327.617 327.602C327.373 327.868 327.078 328.082 326.75 328.231L315.88 333.141C314.747 333.407 313.582 333.515 312.42 333.461ZM308.93 332.221C311.087 332.554 313.282 332.554 315.44 332.221L326.31 327.321C326.519 327.224 326.706 327.086 326.859 326.914C327.012 326.742 327.128 326.54 327.2 326.321C327.274 326.108 327.305 325.882 327.291 325.657C327.277 325.433 327.219 325.213 327.12 325.011C326.12 323.011 324.54 319.871 323.64 318.081L320.06 320.181C320.262 321.32 320.13 322.494 319.68 323.561C319.185 324.816 318.547 326.01 317.78 327.121L317.67 327.311C317.259 327.97 316.714 328.536 316.07 328.971C315.304 329.453 314.445 329.77 313.55 329.901C312.588 330.088 311.644 330.359 310.73 330.711C310.075 331.144 309.471 331.651 308.93 332.221Z" fill="#0C296E"/>
    <path d="M245.616 277.719C245.538 279.17 245.945 280.644 246.757 281.852C246.853 281.996 246.96 282.143 246.993 282.313C247.027 282.483 246.975 282.686 246.82 282.768C246.654 282.853 246.454 282.764 246.288 282.675C245.634 282.324 244.984 281.948 244.464 281.42C243.943 280.891 243.042 278.72 243.034 277.977" fill="white"/>
    <path d="M245.643 277.219C245.918 277.234 246.13 277.47 246.115 277.745C246.043 279.089 246.42 280.455 247.172 281.573L247.173 281.574L247.173 281.574C247.18 281.585 247.189 281.597 247.198 281.611C247.28 281.732 247.433 281.955 247.484 282.217C247.54 282.501 247.482 282.985 247.052 283.211L247.047 283.213L247.047 283.213C246.82 283.329 246.594 283.311 246.434 283.272C246.279 283.233 246.141 283.164 246.053 283.116L246.052 283.116C245.396 282.764 244.686 282.357 244.107 281.771C243.925 281.586 243.744 281.299 243.583 281.003C243.415 280.695 243.245 280.334 243.095 279.97C242.944 279.607 242.808 279.232 242.708 278.896C242.612 278.572 242.537 278.241 242.534 277.982C242.531 277.706 242.753 277.48 243.029 277.477C243.305 277.475 243.531 277.696 243.534 277.972C243.535 278.084 243.575 278.303 243.667 278.612C243.754 278.908 243.878 279.249 244.018 279.587C244.158 279.925 244.313 280.253 244.461 280.524C244.615 280.807 244.741 280.989 244.82 281.068C245.24 281.495 245.766 281.821 246.348 282.139C246.346 282.136 246.344 282.133 246.342 282.13C245.469 280.832 245.033 279.252 245.117 277.692C245.131 277.416 245.367 277.205 245.643 277.219Z" fill="#0C296E"/>
    <path d="M244 273C242.478 274.514 240.611 275.648 238 275.264C236.128 274.987 233.417 274.095 231.5 273.5C231.256 273.426 229.897 273.632 232.563 275.264C234.513 276.457 235.041 276.631 236.785 277.45C241.309 279.572 244.443 278.945 247.008 275.105" fill="white"/>
    <path d="M241.413 279.065C239.75 279.001 238.122 278.57 236.643 277.805L235.753 277.395C234.584 276.878 233.455 276.277 232.373 275.595C231.293 274.935 230.223 274.145 230.573 273.385C230.685 273.192 230.858 273.042 231.064 272.959C231.271 272.876 231.499 272.864 231.713 272.925L232.443 273.155C234.295 273.779 236.186 274.28 238.103 274.655C239.136 274.8 240.189 274.681 241.163 274.309C242.138 273.936 243.001 273.322 243.673 272.525C243.72 272.478 243.775 272.441 243.836 272.415C243.897 272.39 243.962 272.377 244.028 272.377C244.094 272.377 244.16 272.39 244.221 272.415C244.282 272.441 244.337 272.478 244.383 272.525C244.431 272.57 244.469 272.624 244.495 272.684C244.522 272.744 244.535 272.809 244.535 272.875C244.535 272.94 244.522 273.005 244.495 273.066C244.469 273.126 244.431 273.18 244.383 273.225C243.594 274.127 242.594 274.819 241.472 275.239C240.35 275.66 239.141 275.796 237.953 275.635C235.971 275.247 234.016 274.726 232.103 274.075L231.813 273.985C232.13 274.251 232.464 274.495 232.813 274.715C233.864 275.372 234.96 275.953 236.093 276.455L236.983 276.875C241.333 278.875 244.203 278.265 246.583 274.705C246.619 274.65 246.665 274.602 246.719 274.565C246.773 274.528 246.834 274.502 246.899 274.489C246.963 274.476 247.03 274.476 247.094 274.489C247.158 274.502 247.219 274.528 247.273 274.565C247.383 274.638 247.459 274.752 247.486 274.881C247.512 275.01 247.486 275.145 247.413 275.255C245.803 277.815 243.843 279.065 241.413 279.065Z" fill="#0C296E"/>
    <path d="M247.005 275.102C250.702 269.536 260.375 254.53 261.889 248.366C262.712 245.699 268.046 224.879 265.907 215.077C265.785 214.519 265.534 213.988 265.109 213.607C264.208 212.791 262.964 212.787 261.844 213.127C260.474 213.544 259.381 214.542 258.701 215.801C257.726 217.607 257.571 219.65 257.46 221.655C256.921 231.398 257.187 241.33 254.461 250.7C252.079 258.892 250.513 261.979 246.151 270.042C246.151 270.042 245.335 271.464 243.932 272.864L247.005 275.102Z" fill="#00D6B9"/>
    <path d="M246.945 275.794C246.84 275.791 246.739 275.756 246.655 275.694L243.575 273.454C243.518 273.411 243.471 273.357 243.437 273.295C243.402 273.233 243.381 273.165 243.375 273.094C243.369 273.021 243.379 272.948 243.403 272.879C243.427 272.811 243.465 272.747 243.515 272.694C244.335 271.881 245.053 270.97 245.655 269.984C250.045 261.874 251.545 258.914 253.925 250.744C256.055 243.424 256.345 235.614 256.635 228.054C256.705 225.964 256.785 223.884 256.905 221.814C256.871 219.721 257.316 217.649 258.205 215.754C258.92 214.368 260.152 213.319 261.635 212.834C262.256 212.593 262.93 212.52 263.589 212.624C264.248 212.728 264.867 213.004 265.385 213.424C265.889 213.883 266.238 214.488 266.385 215.154C268.525 224.964 263.385 245.354 262.385 248.704C260.815 255.124 250.545 270.884 247.445 275.564C247.367 275.677 247.249 275.756 247.115 275.784L246.945 275.794ZM244.635 272.984L246.815 274.574C250.205 269.464 259.815 254.574 261.345 248.434C262.215 245.614 267.445 224.944 265.345 215.374C265.265 214.913 265.041 214.489 264.705 214.164C264.31 213.873 263.848 213.687 263.362 213.622C262.876 213.557 262.382 213.616 261.925 213.794C261.313 213.991 260.746 214.307 260.257 214.724C259.767 215.141 259.366 215.651 259.075 216.224C258.28 217.999 257.894 219.93 257.945 221.874C257.825 223.934 257.745 226.014 257.675 228.094C257.385 235.704 257.085 243.584 254.925 251.024C252.525 259.264 250.925 262.454 246.575 270.464C246.022 271.367 245.379 272.212 244.655 272.984H244.635Z" fill="#00D6B9"/>
    <path d="M258.088 191.469C259.975 190.169 260.721 189.719 262.575 189.671C265.183 189.608 266.612 189.737 269.249 191.141C277.482 195.842 277.301 202.191 281.378 204.378C280.148 208.318 277.992 210.232 272.636 210.76C270.187 210.715 268.141 209.785 265.903 209.408C263.665 209.031 260.995 209.201 259.658 211.037C259.658 211.037 258.055 210.538 258.505 208.285C259.037 205.611 262.258 203.809 262.258 203.809C263.059 203.849 263.898 203.883 264.622 203.532C265.342 203.181 265.874 202.309 265.571 201.567C264.71 199.458 261.538 201.305 261.538 201.305C259.879 200.54 258.066 198.598 257.353 196.917C256.637 195.237 258.088 191.469 258.088 191.469Z" fill="#0C296E"/>
    <path d="M259.71 211.27C259.66 211.28 259.61 211.28 259.56 211.27C258.85 211.05 257.64 210.081 258.06 207.941C258.63 205.081 261.92 203.211 262.06 203.131C262.141 203.081 262.236 203.059 262.33 203.07C263.045 203.162 263.771 203.083 264.45 202.841C264.704 202.735 264.913 202.545 265.042 202.302C265.172 202.06 265.213 201.78 265.16 201.51C265.11 201.366 265.026 201.235 264.917 201.127C264.808 201.02 264.676 200.939 264.53 200.89C263.59 200.778 262.64 200.993 261.84 201.501C261.768 201.535 261.69 201.553 261.61 201.553C261.53 201.553 261.452 201.535 261.38 201.501C259.428 200.482 257.868 198.847 256.94 196.851C256.17 195.041 257.51 191.431 257.67 191.031C257.704 190.937 257.767 190.856 257.85 190.8C259.74 189.49 260.59 188.961 262.61 188.911C265.019 188.693 267.437 189.228 269.53 190.441C273.182 192.528 276.146 195.635 278.06 199.381C279.19 201.311 280.06 202.83 281.66 203.68C281.762 203.734 281.841 203.821 281.885 203.927C281.929 204.033 281.934 204.151 281.9 204.26C280.54 208.65 278.05 210.471 272.73 211.001C271.229 210.93 269.744 210.668 268.31 210.221C267.507 209.986 266.693 209.792 265.87 209.64C264.61 209.43 261.52 209.14 260.11 211.07C260.063 211.132 260.002 211.182 259.933 211.217C259.864 211.251 259.787 211.27 259.71 211.27ZM262.43 204.05C261.87 204.4 259.43 205.98 259.04 208.12C258.922 208.469 258.909 208.845 259.003 209.2C259.097 209.556 259.295 209.876 259.57 210.12C261.3 208.17 264.33 208.33 266.03 208.62C266.9 208.77 267.75 209.001 268.57 209.221C269.906 209.642 271.291 209.894 272.69 209.971C277.38 209.501 279.57 207.971 280.83 204.311C279.23 203.311 278.28 201.7 277.2 199.86C275.372 196.271 272.541 193.29 269.05 191.281C267.114 190.151 264.871 189.661 262.64 189.881C260.96 189.881 260.29 190.311 258.55 191.501C258.14 192.601 257.36 195.26 257.86 196.43C258.661 198.11 259.955 199.506 261.57 200.43C262.561 199.857 263.725 199.658 264.85 199.87C265.131 199.967 265.388 200.124 265.6 200.332C265.813 200.539 265.977 200.792 266.08 201.07C266.237 201.574 266.203 202.118 265.983 202.598C265.763 203.078 265.374 203.46 264.89 203.67C264.115 204.003 263.269 204.133 262.43 204.05Z" fill="#0C296E"/>
    <path d="M269.753 235.795C272.4 234.827 275.271 235.896 277.616 236.969C277.718 237.016 277.821 237.063 277.923 237.11C280.22 238.164 282.466 239.195 284.748 238.843C285.021 238.801 285.276 238.988 285.318 239.261C285.36 239.534 285.173 239.789 284.9 239.831C282.311 240.231 279.805 239.077 277.59 238.058C277.459 237.998 277.329 237.938 277.2 237.879C274.832 236.795 272.317 235.922 270.097 236.734C269.837 236.829 269.55 236.695 269.455 236.436C269.361 236.177 269.494 235.89 269.753 235.795Z" fill="#0C296E"/>
    <path d="M265.7 214.285C264.723 212.935 262.758 212.467 261.489 213.367C261.264 213.526 260.952 213.473 260.792 213.248C260.633 213.023 260.686 212.711 260.911 212.551C262.716 211.271 265.279 211.998 266.51 213.698C267.711 215.353 267.953 217.7 268.07 219.561L268.07 219.561C268.257 222.538 267.822 226.202 267.241 229.814C266.964 231.538 266.658 233.233 266.366 234.848C266.038 236.661 265.728 238.374 265.499 239.913C265.458 240.186 265.204 240.374 264.931 240.334C264.658 240.293 264.469 240.039 264.51 239.766C264.737 238.238 265.054 236.483 265.387 234.64C265.68 233.016 265.986 231.323 266.254 229.656C266.833 226.05 267.251 222.481 267.072 219.624M267.072 219.623C266.953 217.732 266.708 215.674 265.7 214.286L265.7 214.285" fill="#0C296E"/>
    <path d="M237.609 223.031C238.61 225.698 239.611 228.364 240.612 231.031L237.609 223.031Z" fill="white"/>
    <path d="M238.324 225.032C238.583 224.935 238.871 225.066 238.968 225.324L241.971 233.324C242.068 233.583 241.937 233.871 241.679 233.968C241.42 234.065 241.132 233.934 241.035 233.676L238.032 225.676C237.935 225.417 238.066 225.129 238.324 225.032Z" fill="white"/>
    <path d="M299.707 273.267C295.234 264.21 289.945 253.064 286.348 243.395L273.111 259.967L273.107 259.967C277.056 266.382 296.8 289.625 303.644 296.642L303.64 296.636C309.675 304.488 315.942 313.283 319.961 320.593L324.338 318.019C305.944 278.69 307.365 288.766 299.707 273.267Z" fill="#0C296E"/>
    <path d="M286.427 242.901C286.249 242.872 286.069 242.942 285.957 243.082L272.75 259.618C272.717 259.651 272.69 259.688 272.667 259.73C272.583 259.887 272.588 260.077 272.682 260.229C274.679 263.474 280.629 270.919 286.907 278.4C293.183 285.879 299.828 293.443 303.269 296.974C309.292 304.813 315.529 313.569 319.523 320.834C319.588 320.953 319.698 321.04 319.829 321.076C319.959 321.111 320.098 321.093 320.215 321.024L324.591 318.45C324.813 318.319 324.9 318.041 324.791 317.807C315.591 298.136 311.335 290.795 308.412 286.428C307.662 285.309 307.005 284.39 306.377 283.513C304.557 280.97 302.988 278.779 300.155 273.045C295.683 263.991 290.404 252.864 286.816 243.22C286.753 243.051 286.605 242.929 286.427 242.901ZM273.721 260.004L286.189 244.394C289.785 253.893 294.911 264.686 299.258 273.488C302.129 279.299 303.746 281.557 305.578 284.116C306.201 284.986 306.849 285.892 307.581 286.985C310.44 291.257 314.631 298.47 323.692 317.819L320.15 319.902C316.106 312.649 309.952 304.029 304.037 296.331C304.016 296.305 303.994 296.281 303.97 296.26C300.552 292.751 293.937 285.222 287.673 277.757C281.57 270.485 275.841 263.321 273.721 260.004Z" fill="#0C296E"/>
    <path d="M284.655 249.903C284.93 249.876 285.174 250.078 285.201 250.352C285.522 253.69 284.564 256.972 282.331 259.167C280.083 261.378 276.617 262.413 272.09 261.394C271.821 261.333 271.652 261.066 271.713 260.796C271.773 260.527 272.041 260.358 272.31 260.418C276.573 261.378 279.669 260.381 281.63 258.454C283.606 256.512 284.504 253.551 284.205 250.448C284.179 250.174 284.38 249.929 284.655 249.903Z" fill="white"/>
    <path d="M58.6791 64.9705C61.1223 65.3681 64.0026 67.7392 65.4634 68.4844L67.5998 63.373C62.1045 61.3455 60.0287 60.2963 55.1213 57.0824C51.5013 55.1585 44.8065 55.1637 45.7112 57.0679C46.4349 58.5912 52.9495 59.3261 55.7004 62.2054C53.7265 61.8523 49.9556 61.3571 50.6632 62.2006C51.5476 63.255 55.6251 64.4734 58.6791 64.9705Z" fill="white"/>
    <path d="M53.9021 61.4223C52.6969 60.6798 51.2102 60.1089 49.7777 59.5992C49.5725 59.5262 49.3682 59.4543 49.1663 59.3833C48.3689 59.1028 47.6103 58.8359 46.991 58.5669C46.6009 58.3975 46.2442 58.2183 45.9543 58.0216C45.671 57.8293 45.4054 57.5899 45.2592 57.2824C45.0885 56.9229 45.0742 56.5375 45.2744 56.192C45.4557 55.8794 45.7707 55.6747 46.0939 55.5365C46.7444 55.2583 47.6906 55.139 48.7195 55.1395C50.7896 55.1407 53.4544 55.6304 55.3556 56.6408C55.3691 56.648 55.3822 56.6557 55.3949 56.6641C60.271 59.8574 62.313 60.8896 67.7726 62.9039C67.9005 62.9511 68.0035 63.0484 68.0579 63.1733C68.1124 63.2983 68.1134 63.44 68.0609 63.5658L65.9245 68.6772C65.8708 68.8056 65.766 68.9058 65.6353 68.9538C65.5047 69.0017 65.3599 68.993 65.2359 68.9298C64.8436 68.7296 64.3679 68.427 63.8582 68.0963C63.7675 68.0374 63.6754 67.9775 63.582 67.9166C63.1415 67.6298 62.6711 67.3235 62.1793 67.0241C60.9759 66.2913 59.7166 65.6459 58.5985 65.4639C57.0467 65.2114 55.2382 64.7764 53.7007 64.2693C52.9321 64.0159 52.2213 63.7412 51.6399 63.4577C51.0754 63.1825 50.5726 62.871 50.2798 62.5219C50.1514 62.3689 49.9574 62.041 50.1646 61.6899C50.2482 61.5483 50.3692 61.4642 50.4638 61.4146C50.5609 61.3638 50.6645 61.3313 50.7599 61.3089C51.1224 61.2241 51.6544 61.2238 52.2043 61.255C52.7262 61.2846 53.3181 61.3466 53.9021 61.4223ZM46.5158 57.1941C46.7314 57.3404 47.0239 57.491 47.3893 57.6497C47.9725 57.903 48.6858 58.154 49.4787 58.433C49.685 58.5056 49.8967 58.5801 50.1129 58.657C52.1557 59.3839 54.5907 60.3203 56.0616 61.8599C56.2111 62.0163 56.243 62.2511 56.1407 62.4418C56.0384 62.6324 55.8251 62.7356 55.6121 62.6975C54.6329 62.5224 53.2193 62.3142 52.1476 62.2534C51.8966 62.2392 51.6766 62.2339 51.4919 62.237C51.6506 62.3374 51.8456 62.4455 52.0781 62.5588C52.6054 62.8159 53.2707 63.0746 54.0139 63.3197C55.4996 63.8096 57.257 64.2324 58.7591 64.4769C60.0842 64.6925 61.4866 65.4315 62.6994 66.17C63.2053 66.4781 63.6908 66.7941 64.1315 67.0811C64.2239 67.1413 64.3143 67.2002 64.4025 67.2574C64.7041 67.4531 64.9766 67.6275 65.2185 67.7731L66.9373 63.6608C61.7732 61.738 59.6433 60.6409 54.8664 57.5134C53.1484 56.6068 50.6674 56.1407 48.7189 56.1395C47.7347 56.139 46.9506 56.2577 46.4871 56.4559C46.2533 56.5559 46.1654 56.649 46.1396 56.6936C46.1392 56.6942 46.1388 56.6948 46.1384 56.6955C46.1304 56.7087 46.1098 56.7424 46.1625 56.8533C46.1973 56.9265 46.2936 57.0433 46.5158 57.1941Z" fill="#0C296E"/>
    <path d="M67.6302 63.0713C86.1299 72.5985 109.029 77.7319 129.107 82.3435L100.296 85.9046C94.1764 83.175 70.9589 72.1321 65.1686 68.6587L67.6302 63.0713Z" fill="#14C0FF"/>
    <path d="M67.4632 62.6007C67.5932 62.5547 67.7364 62.5644 67.8589 62.6275C85.881 71.9087 108.108 77.011 127.871 81.5475C128.322 81.6509 128.771 81.754 129.219 81.8569C129.455 81.9112 129.619 82.1275 129.606 82.3699C129.594 82.6122 129.409 82.8106 129.168 82.8404L100.357 86.4015C100.267 86.4127 100.175 86.399 100.092 86.3619C93.9757 83.6337 70.7312 72.5794 64.9112 69.0882C64.6951 68.9586 64.6093 68.6884 64.7108 68.4579L67.1724 62.8704C67.228 62.7443 67.3332 62.6467 67.4632 62.6007ZM67.8739 63.7586L65.805 68.4546C72.0941 72.1134 94.1946 82.6273 100.372 85.392L126.228 82.1962C107.017 77.7839 85.5051 72.7319 67.8739 63.7586Z" fill="#14C0FF"/>
    <path d="M148.666 86.2747L139.007 85.4141L137.764 90.1958L148.666 95.3601V86.2747Z" fill="white"/>
    <path d="M138.524 85.2882C138.585 85.0518 138.808 84.8944 139.052 84.9161L148.71 85.7767C148.968 85.7996 149.166 86.0157 149.166 86.2747V95.3602C149.166 95.5316 149.078 95.691 148.933 95.7827C148.788 95.8743 148.607 95.8854 148.452 95.812L137.55 90.6477C137.333 90.5449 137.219 90.3023 137.28 90.0699L138.524 85.2882ZM139.385 85.9497L138.352 89.9211L148.166 94.57V86.7321L139.385 85.9497Z" fill="#0C296E"/>
    <path d="M158.832 87.4241C158.023 89.4151 156.784 92.1854 155.781 94.1025C155.156 93.4785 154.625 92.7805 154.199 92.0342L154.773 92.9156C153.277 95.1446 154.933 92.6775 153.433 94.9098C152.67 96.0453 151.667 97.3126 150.202 97.3448C148.638 97.3801 147.145 96.2286 146.563 94.9098C145.489 92.4749 144.215 88.9008 144.661 86.3083C144.177 85.6489 143.862 84.5385 143.532 83.784C143.167 82.9472 142.821 80.5642 144.296 80.5739C145.155 80.5803 145.776 81.4196 146.131 82.1305C146.485 82.8413 146.528 83.6423 146.563 84.4207C154.451 78.0422 158.321 79.3666 158.832 87.4241Z" fill="white"/>
    <path d="M150.216 97.9618C149.363 97.9181 148.538 97.6402 147.833 97.1586C147.127 96.677 146.568 96.0104 146.216 95.2318C145.106 92.7118 143.886 89.2318 144.216 86.5418C143.908 86.0001 143.65 85.431 143.446 84.8418C143.346 84.5818 143.256 84.3218 143.156 84.1018C142.93 83.5865 142.812 83.0297 142.812 82.4668C142.812 81.9038 142.93 81.3471 143.156 80.8318C143.29 80.6274 143.475 80.4611 143.692 80.349C143.909 80.2369 144.152 80.1827 144.396 80.1918C144.908 80.2534 145.392 80.4576 145.794 80.7812C146.195 81.1048 146.498 81.5347 146.666 82.0218C146.899 82.5016 147.042 83.0203 147.086 83.5518C151.086 80.4518 154.086 79.3918 156.216 80.3318C158.126 81.1618 159.166 83.5118 159.426 87.5118C159.441 87.5844 159.441 87.6592 159.426 87.7318C158.656 89.6218 157.426 92.4318 156.356 94.4518C156.321 94.5222 156.268 94.5828 156.204 94.6281C156.139 94.6735 156.065 94.7022 155.986 94.7118C155.909 94.7231 155.829 94.7164 155.755 94.6921C155.68 94.6678 155.612 94.6266 155.556 94.5718C155.336 94.3518 155.136 94.1218 154.936 93.8918L154.866 93.9818C154.811 94.0748 154.751 94.1649 154.686 94.2518L154.026 95.2518C153.156 96.5518 152.026 97.8718 150.386 97.9118L150.216 97.9618ZM144.406 81.1918C144.33 81.1826 144.252 81.1956 144.183 81.2293C144.114 81.263 144.056 81.316 144.016 81.3818C143.761 82.1408 143.796 82.9676 144.116 83.7018C144.216 83.9318 144.316 84.2118 144.426 84.4918C144.613 85.0669 144.868 85.6174 145.186 86.1318C145.226 86.1861 145.254 86.2477 145.269 86.3129C145.285 86.3781 145.287 86.4457 145.276 86.5118C144.856 88.9318 146.066 92.3718 147.146 94.8218C147.419 95.4288 147.854 95.9492 148.402 96.3265C148.95 96.7038 149.592 96.9235 150.256 96.9618H150.316C151.506 96.9618 152.376 95.8818 153.146 94.7518C153.416 94.3418 153.606 94.0518 153.756 93.8518C153.753 93.8253 153.753 93.7984 153.756 93.7718L154.236 93.0518C154.096 92.8418 153.966 92.6318 153.836 92.4118C153.771 92.2976 153.753 92.1621 153.786 92.0348C153.82 91.9075 153.903 91.7986 154.016 91.7318C154.127 91.6649 154.259 91.6442 154.384 91.6742C154.51 91.7041 154.618 91.7823 154.686 91.8918L155.266 92.7718C155.406 92.9618 155.556 93.1518 155.716 93.3318C156.656 91.4618 157.716 89.1118 158.376 87.4418C158.146 83.9718 157.266 81.8818 155.776 81.2218C153.926 80.4118 150.956 81.6518 146.926 84.9018C146.857 84.9618 146.772 85.0004 146.682 85.0128C146.591 85.0253 146.499 85.011 146.416 84.9718C146.331 84.9359 146.257 84.8764 146.204 84.8003C146.151 84.7242 146.12 84.6345 146.116 84.5418C146.134 83.8264 146.005 83.115 145.736 82.4518C145.546 82.0618 145.026 81.1718 144.346 81.1718L144.406 81.1918Z" fill="#0C296E"/>
    <path d="M144.098 80.1814C144.047 78.483 145.458 76.0963 146.365 74.6585C148.903 70.6358 155.788 72.621 159.148 74.0679C158.955 74.2802 158.234 75.0831 158.041 75.2954C162.326 76.3036 166.024 81.4123 166.024 81.4123C166.024 81.4123 161.607 83.0506 162.056 84.4176C162.551 85.9237 160.05 87.8657 158.617 87.5493L156.739 84.7617C155.549 85.0545 154.272 84.7617 153.182 84.2021C152.091 83.6424 151.149 82.835 150.219 82.0341C148.971 83.176 147.726 84.3211 146.478 85.4629C146.231 85.0609 146.186 84.5398 146.366 84.1056L144.098 80.1814Z" fill="#0C296E"/>
    <path d="M152.413 72.8106C154.5 72.9586 156.681 73.619 158.302 74.2594C158.276 74.2879 158.25 74.3167 158.224 74.3454L158.223 74.3469C157.994 74.6014 157.766 74.8539 157.671 74.9589C157.552 75.0899 157.511 75.2743 157.563 75.4434C157.616 75.6126 157.754 75.7414 157.926 75.7819C159.936 76.2546 161.851 77.7067 163.293 79.0922C164.007 79.7784 164.59 80.4345 164.995 80.9188C165.079 81.019 165.155 81.1118 165.223 81.1959C165.197 81.207 165.17 81.2184 165.143 81.2301C164.727 81.4088 164.173 81.6636 163.629 81.9647C163.092 82.262 162.535 82.6211 162.136 83.0149C161.764 83.3816 161.372 83.9375 161.581 84.5733C161.653 84.7922 161.628 85.0592 161.478 85.3697C161.328 85.6813 161.067 86.0025 160.735 86.2865C160.404 86.5693 160.022 86.7981 159.652 86.937C159.367 87.0446 159.112 87.0896 158.905 87.0826L157.154 84.4822C157.037 84.3082 156.823 84.2259 156.62 84.276C155.584 84.5308 154.433 84.282 153.41 83.757C152.381 83.2289 151.482 82.4621 150.546 81.6551C150.354 81.4898 150.068 81.494 149.882 81.665C149.258 82.2359 148.634 82.8077 148.012 83.3791L148.011 83.3799C147.596 83.7603 147.181 84.1407 146.767 84.5208C146.778 84.4434 146.798 84.368 146.828 84.2969C146.887 84.1532 146.876 83.9899 146.799 83.8552L144.597 80.0453C144.609 79.3372 144.897 78.4534 145.326 77.5329C145.771 76.574 146.337 75.6398 146.788 74.9251C147.907 73.1516 150.015 72.6406 152.413 72.8106ZM166.427 81.1173L166.425 81.1138L166.416 81.1013L166.382 81.0553C166.352 81.0155 166.308 80.958 166.252 80.8849C166.139 80.7387 165.974 80.5302 165.762 80.2774C165.34 79.7723 164.732 79.0882 163.986 78.3712C162.68 77.1166 160.909 75.7174 158.946 75.0385C158.952 75.0318 158.958 75.0251 158.964 75.0184L158.966 75.016C159.195 74.7615 159.423 74.509 159.518 74.404C159.627 74.2845 159.671 74.1198 159.637 73.9619C159.603 73.804 159.494 73.6723 159.346 73.6084C157.639 72.8736 155.02 71.993 152.484 71.8131C149.964 71.6345 147.361 72.1422 145.942 74.3915C145.486 75.1146 144.892 76.0926 144.419 77.1112C143.952 78.1149 143.569 79.2251 143.598 80.1963C143.601 80.279 143.624 80.3597 143.665 80.4313L145.821 84.1614C145.683 84.6866 145.768 85.2629 146.053 85.725C146.131 85.8519 146.261 85.9373 146.409 85.9579C146.557 85.9785 146.706 85.9322 146.816 85.8316C147.44 85.2604 148.064 84.6884 148.687 84.1167C149.201 83.6451 149.715 83.1731 150.23 82.7021C151.056 83.4084 151.94 84.1268 152.953 84.6467C154.012 85.19 155.275 85.5179 156.511 85.3178L158.202 87.8284C158.274 87.9349 158.384 88.0097 158.509 88.0373C158.995 88.1446 159.524 88.0538 160.004 87.873C160.492 87.6897 160.973 87.3982 161.384 87.0468C161.794 86.6966 162.155 86.2697 162.379 85.8035C162.604 85.3361 162.707 84.7956 162.531 84.2614C162.515 84.2137 162.508 84.0522 162.838 83.7272C163.14 83.4294 163.603 83.1226 164.114 82.8395C164.618 82.5602 165.14 82.32 165.538 82.1488C165.736 82.0635 165.903 81.996 166.019 81.95C166.077 81.9271 166.122 81.9095 166.153 81.8978L166.187 81.8848L166.195 81.8816C166.195 81.8816 166.379 81.678 166.425 81.4014" fill="#0C296E"/>
    <path d="M104.718 175.868C104.362 176.474 104.095 177.404 103.758 177.973C109.832 180.652 111.147 180.968 117.521 183.839C120.673 185.259 123.256 187.898 120.47 187.907C111.957 187.071 102.716 185.774 98.7404 184.999C97.9033 184.763 94.9302 184.582 95.984 182.038C96.374 181.092 97.357 178.775 99.1819 175.344" fill="white"/>
    <path d="M99.4164 174.901C99.6602 175.031 99.7528 175.334 99.6231 175.577C97.8075 178.992 96.8313 181.293 96.446 182.228L96.4457 182.229C96.2143 182.788 96.2347 183.139 96.3196 183.363C96.4063 183.591 96.5962 183.782 96.8933 183.945C97.1922 184.109 97.5577 184.221 97.9233 184.307C98.0923 184.347 98.254 184.38 98.4061 184.411C98.4168 184.413 98.4275 184.416 98.4381 184.418C98.5838 184.447 98.7326 184.478 98.8548 184.511C102.815 185.282 112.008 186.572 120.493 187.406C120.795 187.403 120.982 187.365 121.087 187.323C121.124 187.308 121.146 187.295 121.157 187.287C121.156 187.269 121.151 187.233 121.127 187.172C121.082 187.059 120.99 186.906 120.836 186.719C120.211 185.961 118.852 184.986 117.316 184.294C114.136 182.862 112.219 182.067 110.337 181.296C110.192 181.237 110.048 181.177 109.903 181.118C108.161 180.404 106.366 179.669 103.556 178.43C103.425 178.372 103.326 178.261 103.282 178.125C103.238 177.989 103.255 177.841 103.328 177.718C103.473 177.472 103.609 177.137 103.767 176.746L103.772 176.734C103.921 176.367 104.089 175.952 104.286 175.615C104.426 175.376 104.732 175.296 104.97 175.436C105.209 175.576 105.288 175.882 105.149 176.12C104.993 176.386 104.852 176.733 104.694 177.121L104.682 177.151C104.607 177.338 104.527 177.536 104.441 177.727C106.966 178.835 108.644 179.522 110.282 180.193C110.427 180.252 110.572 180.311 110.717 180.371C112.604 181.145 114.532 181.944 117.726 183.382C119.342 184.11 120.85 185.165 121.608 186.083C121.8 186.315 121.961 186.56 122.058 186.807C122.154 187.051 122.205 187.347 122.097 187.64C121.984 187.945 121.737 188.14 121.458 188.251C121.186 188.36 120.852 188.405 120.471 188.406C120.455 188.406 120.438 188.405 120.421 188.404C111.899 187.567 102.642 186.268 98.6445 185.489C98.631 185.486 98.6177 185.483 98.6044 185.48C98.5212 185.456 98.4028 185.431 98.2383 185.398C98.227 185.395 98.2157 185.393 98.2041 185.391C98.054 185.36 97.8779 185.324 97.6931 185.28C97.2987 185.187 96.8298 185.051 96.4125 184.822C95.9934 184.592 95.5853 184.246 95.3847 183.718C95.1825 183.185 95.2263 182.56 95.5216 181.847C95.9166 180.888 96.9064 178.557 98.7402 175.108C98.8699 174.864 99.1726 174.772 99.4164 174.901ZM121.168 187.276C121.168 187.276 121.167 187.278 121.165 187.28C121.167 187.277 121.168 187.276 121.168 187.276Z" fill="#0C296E"/>
    <path d="M105.241 100.895C116.617 109.256 127.452 118.355 137.656 128.111C138.545 128.96 139.445 129.841 139.982 130.95C140.987 133.032 140.495 135.59 139.302 137.57C137.521 140.522 134.529 143.178 132.143 145.653C122.522 155.619 114.655 166.832 105.422 177.092L99.4782 175.287C102.21 171.097 105.156 164.681 107.877 159.129C112.21 150.296 116.719 141.177 124.241 134.834L124.2 134.902C110.314 126.475 97.6997 127.402 86.1997 114.402C82.9173 110.342 81.3273 104.583 82.2801 99.4485" fill="#3370FF"/>
    <path d="M49.4995 179.002C50.3509 179.346 47.7234 181.199 48.4995 181.502C52.6978 183.139 59.4298 183.752 63.9912 185.672C64.4063 186.271 64.034 187.09 63.3117 187.181C57.0049 187.963 48.7111 187.155 42.6799 187.376C42.1267 187.398 41.5323 187.403 41.0716 187.092C40.4859 186.699 40.3044 185.886 40.4511 185.194C40.9218 182.976 43.7007 179.403 43.5837 177.434" fill="white"/>
    <path d="M43.0849 177.463C43.0693 177.2 43.261 176.97 43.5228 176.937L51.6598 175.933C51.8542 175.909 52.0448 176.001 52.1472 176.168C52.2497 176.335 52.2451 176.547 52.1356 176.709L49.3139 180.895C51.7295 181.816 53.9824 182.333 56.2607 182.856C56.308 182.867 56.3553 182.878 56.4026 182.889C58.904 183.463 61.4388 184.054 64.1856 185.211C64.2732 185.248 64.3484 185.309 64.4025 185.387C65.035 186.299 64.4632 187.539 63.3744 187.676L63.3736 187.676C60.1807 188.072 56.4982 188.065 52.8823 187.988C52.0557 187.971 51.2331 187.95 50.4201 187.929C47.6613 187.858 45.0136 187.79 42.6992 187.875C42.1701 187.896 41.4087 187.922 40.7928 187.506C39.9776 186.959 39.7907 185.899 39.9623 185.09C40.0929 184.475 40.3764 183.792 40.7051 183.106C40.9532 182.588 41.2385 182.047 41.5198 181.513C41.6124 181.337 41.7046 181.162 41.7948 180.989C42.1639 180.281 42.5036 179.602 42.7441 178.983C42.9885 178.355 43.1076 177.845 43.0849 177.463ZM40.7928 187.506C40.7927 187.506 40.7925 187.506 40.7924 187.506L41.072 187.092L40.7933 187.507C40.7931 187.507 40.793 187.507 40.7928 187.506ZM41.6068 183.538C41.2858 184.208 41.0454 184.803 40.9406 185.297C40.8188 185.871 40.9949 186.438 41.3506 186.676L41.3515 186.677C41.6567 186.883 42.0835 186.898 42.6606 186.876L42.662 186.875C45.0107 186.79 47.7022 186.859 50.4677 186.93C51.2755 186.95 52.0897 186.971 52.9034 186.988C56.5187 187.065 60.1362 187.07 63.2499 186.684C63.5621 186.644 63.7332 186.334 63.6369 186.065C61.0405 184.99 58.6319 184.427 56.1788 183.863C56.1241 183.851 56.0693 183.838 56.0145 183.826C53.5689 183.264 51.0733 182.691 48.3634 181.596C48.2236 181.539 48.1168 181.423 48.0727 181.278C48.0286 181.134 48.0519 180.978 48.1362 180.853L50.6929 177.06L44.0701 177.877C44.0202 178.35 43.8688 178.851 43.6761 179.346C43.4139 180.02 43.0514 180.742 42.6815 181.451C42.5868 181.633 42.4918 181.813 42.3974 181.992C42.1186 182.522 41.846 183.039 41.6068 183.538Z" fill="#0C296E"/>
    <path d="M88.1528 87.3065C82.5733 90.7335 78.0562 95.4467 74.5938 104.379C70.6603 114.526 70.3535 132.125 60.8751 142.848C51.3966 153.571 48.7273 164.224 44.1808 177.497L49.7119 179.283C56.2099 169.336 65.376 153.218 72.2281 144.583C74.2046 142.092 84.232 127.654 92.1713 116.605L107.52 99.2381L87.8276 87.3305" fill="#3370FF"/>
    <path d="M74.1276 104.198C77.629 95.1655 82.2172 90.3655 87.8911 86.8804L87.9963 87.0516L88.0864 86.9026L108.291 99.1202L92.5627 116.917C89.0866 121.755 85.2028 127.253 81.771 132.112C77.3828 138.324 73.7335 143.49 72.6198 144.894C69.2137 149.186 65.2228 155.352 61.2616 161.705C59.9214 163.855 58.5843 166.027 57.2757 168.152C54.7242 172.296 52.2804 176.265 50.1305 179.557L49.9217 179.876L43.5429 177.816L43.7078 177.335C44.2926 175.628 44.8468 173.962 45.3893 172.331C49.0512 161.323 52.1737 151.937 60.5005 142.517C65.1565 137.249 67.5798 130.268 69.3288 123.276C69.9241 120.896 70.438 118.53 70.9367 116.235C71.1708 115.157 71.4016 114.094 71.636 113.053C72.3665 109.806 73.1298 106.772 74.1276 104.198ZM87.9773 88.0052C82.6929 91.3516 78.3921 95.9637 75.06 104.559C74.0912 107.059 73.3411 110.03 72.6116 113.272C72.3806 114.299 72.1515 115.353 71.9182 116.427C71.4178 118.731 70.898 121.124 70.2989 123.519C68.5416 130.544 66.0722 137.723 61.2498 143.179C53.0663 152.437 50.0085 161.623 46.3429 172.635C45.8504 174.114 45.3468 175.627 44.8184 177.177L49.5018 178.69C51.5933 175.474 53.9495 171.647 56.4138 167.645C57.7241 165.516 59.0651 163.338 60.413 161.176C64.3724 154.825 68.3906 148.614 71.8365 144.272C72.9358 142.887 76.5456 137.776 80.9051 131.604C84.3468 126.732 88.2557 121.197 91.7653 116.313L91.78 116.292L106.748 99.3559L87.9773 88.0052Z" fill="#3370FF"/>
    <path d="M190.39 136.483C194.528 136.594 199.74 136.673 203.877 136.783C204.13 136.783 204.43 136.815 204.572 137.02C204.762 137.289 204.525 137.62 204.272 137.826C202.124 139.547 188.764 137.92 188.764 137.92L187.627 140.037C186.869 140.637 187.169 141.616 187.785 142.342C188.669 143.4 190.722 144.143 191.464 144.759C191.796 145.027 192.412 145.959 191.464 146.117C189.348 145.801 184.847 144.774 181.957 140.589C180.725 138.821 179.667 136.815 177.804 135.757" fill="white"/>
    <path d="M177.369 135.51C177.505 135.27 177.811 135.186 178.051 135.322C179.065 135.898 179.844 136.723 180.515 137.604C180.93 138.148 181.326 138.746 181.71 139.326C181.933 139.663 182.152 139.994 182.368 140.304L182.369 140.305C185.099 144.259 189.341 145.284 191.45 145.609C191.454 145.608 191.457 145.607 191.46 145.606C191.442 145.538 191.396 145.446 191.328 145.349C191.26 145.252 191.19 145.18 191.15 145.147L191.145 145.144C190.999 145.022 190.768 144.879 190.458 144.707C190.288 144.613 190.128 144.527 189.959 144.437C189.798 144.351 189.629 144.261 189.437 144.154C188.726 143.763 187.912 143.274 187.402 142.664C187.057 142.256 186.77 141.745 186.695 141.211C186.621 140.679 186.764 140.132 187.232 139.716L188.323 137.684C188.421 137.502 188.62 137.399 188.824 137.424L188.764 137.921C188.824 137.424 188.824 137.424 188.824 137.424L188.862 137.429L188.972 137.442C189.07 137.453 189.214 137.47 189.397 137.49C189.765 137.531 190.293 137.588 190.934 137.65C192.215 137.775 193.945 137.924 195.739 138.019C197.536 138.115 199.387 138.156 200.914 138.068C201.679 138.024 202.349 137.948 202.886 137.835C203.438 137.719 203.785 137.575 203.958 137.437C204 137.402 204.04 137.364 204.072 137.326C204.081 137.317 204.088 137.307 204.095 137.298C204.038 137.288 203.966 137.283 203.877 137.283H203.864C201.797 137.228 199.462 137.181 197.124 137.133L197.123 137.133C194.786 137.086 192.448 137.039 190.377 136.983C190.101 136.976 189.883 136.746 189.891 136.47C189.898 136.194 190.128 135.976 190.404 135.984C192.471 136.039 194.806 136.086 197.144 136.134L197.145 136.134C199.479 136.181 201.816 136.228 203.884 136.283C204.024 136.284 204.212 136.292 204.397 136.342C204.586 136.393 204.82 136.5 204.982 136.734C205.212 137.062 205.156 137.415 205.04 137.66C204.93 137.894 204.748 138.084 204.588 138.214L204.585 138.216C204.221 138.507 203.681 138.689 203.092 138.813C202.487 138.941 201.762 139.02 200.972 139.066C199.39 139.157 197.498 139.114 195.686 139.018C193.872 138.922 192.127 138.771 190.836 138.645C190.191 138.582 189.658 138.525 189.287 138.484C189.196 138.474 189.114 138.465 189.043 138.457L188.067 140.273C188.035 140.334 187.991 140.386 187.937 140.429C187.714 140.605 187.65 140.815 187.686 141.073C187.726 141.36 187.896 141.701 188.166 142.019L188.168 142.022C188.543 142.47 189.197 142.881 189.919 143.278C190.072 143.363 190.246 143.456 190.417 143.548C190.606 143.649 190.792 143.749 190.944 143.833C191.254 144.006 191.557 144.186 191.782 144.372C191.907 144.474 192.037 144.618 192.147 144.775C192.257 144.932 192.368 145.132 192.427 145.349C192.485 145.564 192.507 145.862 192.336 146.139C192.162 146.42 191.864 146.557 191.547 146.61C191.495 146.619 191.442 146.619 191.391 146.611C189.235 146.29 184.558 145.234 181.546 140.874C181.3 140.521 181.07 140.173 180.843 139.83C180.477 139.275 180.12 138.734 179.72 138.21C179.088 137.381 178.406 136.674 177.557 136.192C177.317 136.055 177.233 135.75 177.369 135.51ZM204.179 137.323C204.179 137.323 204.178 137.323 204.177 137.323L204.179 137.323Z" fill="#0C296E"/>
    <path d="M185.214 139.595C187.772 140.526 190.378 140.669 192.715 139.263C192.715 139.263 198.006 139.8 200.28 140.037C200.691 140.084 201.117 140.116 201.512 139.99C201.907 139.863 202.27 139.563 202.349 139.153L202.254 138.726L201.812 138.663L202.254 138.726C195.258 137.826 188.388 136.199 181.74 133.894L178.312 135.504" fill="white"/>
    <path d="M181.527 133.441C181.645 133.386 181.78 133.378 181.903 133.421C188.358 135.659 195.021 137.255 201.806 138.163C201.831 138.163 201.857 138.164 201.883 138.168L202.325 138.231C202.45 138.249 202.557 138.312 202.634 138.4C202.66 138.431 202.682 138.464 202.7 138.499C202.721 138.54 202.736 138.583 202.745 138.629L202.837 139.044C202.852 139.111 202.853 139.18 202.84 139.247C202.715 139.898 202.165 140.306 201.664 140.466C201.158 140.628 200.635 140.581 200.226 140.534C199.089 140.416 197.2 140.222 195.594 140.059C194.791 139.977 194.059 139.902 193.527 139.848L192.828 139.777C190.355 141.195 187.634 141.008 185.043 140.065C184.783 139.97 184.65 139.683 184.744 139.424C184.839 139.164 185.126 139.03 185.385 139.125C187.86 140.026 190.295 140.135 192.458 138.835C192.55 138.779 192.659 138.755 192.766 138.766L192.716 139.263C192.766 138.766 192.766 138.766 192.766 138.766L193.628 138.853C194.16 138.907 194.892 138.982 195.696 139.064C197.303 139.228 199.194 139.421 200.332 139.54L200.338 139.54C200.749 139.588 201.078 139.603 201.36 139.513C201.585 139.441 201.742 139.308 201.815 139.173C194.982 138.268 188.27 136.673 181.768 134.433L178.525 135.957C178.275 136.074 177.978 135.967 177.86 135.717C177.743 135.467 177.85 135.169 178.1 135.052L181.527 133.441Z" fill="#0C296E"/>
    <path d="M140.331 85.3757C132.596 83.6024 129.272 82.4413 121.77 81.0406C110.115 78.8614 97.7057 80.9874 87.4385 86.9228L106.203 100.244C110.884 99.6553 115.522 101.259 120.047 102.603C124.568 103.947 131.635 104.13 136.086 102.57L129.223 98.8834C135.857 102.081 143.199 106.705 148.666 111.639C155.729 118.01 174.52 133.208 177.907 135.993L182.412 133.997C164.283 120.616 151.597 99.3492 140.994 89.285L140.331 85.3757Z" fill="#14C0FF"/>
    <path d="M87.1882 86.4899C97.5588 80.4947 110.09 78.348 121.862 80.5491C126.506 81.4161 129.572 82.1962 133.054 83.0822C135.203 83.6289 137.51 84.2158 140.443 84.8884C140.64 84.9335 140.791 85.0929 140.824 85.2922L141.459 89.0376C145.368 92.7737 149.563 98.0121 154.178 103.776C155.819 105.825 157.513 107.941 159.267 110.08C166.025 118.32 173.696 126.942 182.709 133.595C182.852 133.7 182.928 133.874 182.909 134.051C182.889 134.228 182.777 134.382 182.614 134.454L178.109 136.45C177.937 136.527 177.735 136.499 177.589 136.379C177.036 135.924 176.066 135.134 174.802 134.103C168.358 128.85 154.245 117.345 148.331 112.011C144.792 108.816 140.453 105.747 136.032 103.117C133.767 103.869 130.918 104.194 128.089 104.176C125.165 104.157 122.22 103.771 119.904 103.082C119.486 102.958 119.068 102.832 118.651 102.706C114.508 101.458 110.401 100.22 106.265 100.74C106.141 100.756 106.016 100.724 105.913 100.652L87.149 87.3305C87.0102 87.2319 86.9311 87.0695 86.939 86.8995C86.947 86.7294 87.0409 86.5751 87.1882 86.4899ZM134.791 102.441L128.986 99.3239C128.746 99.1953 128.654 98.8988 128.777 98.6565C128.9 98.4143 129.195 98.315 129.44 98.433C136.106 101.646 143.491 106.295 149.001 111.268C154.892 116.582 168.964 128.054 175.418 133.315C176.525 134.217 177.407 134.937 177.986 135.411L181.427 133.886C172.609 127.231 165.092 118.76 158.494 110.714C156.715 108.544 155.004 106.409 153.355 104.348C148.708 98.546 144.539 93.34 140.649 89.6476C140.571 89.5731 140.519 89.4752 140.501 89.3685L139.894 85.7882C137.064 85.1354 134.835 84.5679 132.764 84.0407C129.311 83.1615 126.299 82.3947 121.678 81.5321C110.397 79.4227 98.3977 81.3886 88.3687 86.97L106.335 99.7248C110.628 99.2385 114.876 100.521 118.921 101.743C119.346 101.871 119.769 101.999 120.189 102.124C122.395 102.78 125.244 103.157 128.096 103.176C130.475 103.191 132.827 102.956 134.791 102.441Z" fill="#14C0FF"/>
    <path d="M124.502 96.0891C124.643 95.8515 124.95 95.7729 125.187 95.9136C127.066 97.0255 128.943 98.1366 130.82 99.2477L130.825 99.2505C132.704 100.363 134.583 101.475 136.463 102.588C136.7 102.728 136.779 103.035 136.638 103.273C136.498 103.51 136.191 103.589 135.953 103.448C134.076 102.337 132.2 101.227 130.324 100.116L130.316 100.111C128.437 98.9991 126.558 97.887 124.678 96.7741C124.44 96.6334 124.362 96.3267 124.502 96.0891Z" fill="#0C296E"/>
    <path d="M105.253 80.2676C113.337 79.1886 122.172 79.3736 129.341 81.3051C129.608 81.377 129.766 81.6513 129.694 81.918C129.622 82.1846 129.347 82.3425 129.081 82.2707C122.074 80.3828 113.378 80.1919 105.386 81.2588C97.3795 82.3276 90.1691 84.6462 86.09 87.7043C85.869 87.8699 85.5557 87.8251 85.39 87.6042C85.2244 87.3832 85.2692 87.0698 85.4901 86.9042C89.7719 83.6942 97.1836 81.3449 105.253 80.2676Z" fill="#0C296E"/>
    <path d="M83.5138 90.9725C83.7398 91.1311 83.7946 91.4429 83.636 91.669C82.1132 93.8403 80.9775 96.6214 80.4538 99.475C79.9296 102.331 80.025 105.221 80.9209 107.623L80.921 107.623C81.8183 110.031 83.8797 112.654 86.3092 115.063C88.7292 117.463 91.4704 119.609 93.6685 121.066C93.8987 121.219 93.9615 121.529 93.8089 121.759C93.6563 121.989 93.3461 122.052 93.1159 121.9C90.8686 120.409 88.0756 118.223 85.605 115.773C83.1438 113.332 80.958 110.586 79.9839 107.973C79.0084 105.357 78.9232 102.274 79.4702 99.2944C80.0176 96.3121 81.2047 93.3941 82.8173 91.0948C82.9759 90.8687 83.2877 90.814 83.5138 90.9725Z" fill="#0C296E"/>
    <path d="M28.5421 232.55C28.643 232.451 28.7787 232.396 28.9175 232.396C40.8019 232.396 52.0367 235.034 60.2915 237.666C64.4209 238.983 67.8098 240.3 70.1675 241.288C71.3465 241.782 72.268 242.195 72.8956 242.484C73.2094 242.628 73.4498 242.742 73.6123 242.82C73.6935 242.859 73.7552 242.889 73.7969 242.909L73.8443 242.932L73.8566 242.939L73.8607 242.941C73.861 242.941 73.8612 242.941 73.6121 243.383L73.8607 242.941C74.0199 243.02 74.1188 243.179 74.1188 243.357L74.1188 253.929C74.1188 254.095 74.0334 254.253 73.8916 254.352C73.7497 254.45 73.5702 254.476 73.4138 254.419L73.6121 253.955C73.4138 254.419 73.4139 254.419 73.4138 254.419L73.3957 254.412L73.34 254.392C73.2906 254.375 73.2166 254.348 73.1192 254.314C72.9243 254.245 72.6354 254.145 72.2609 254.017C71.5118 253.761 70.42 253.396 69.0516 252.962C66.3145 252.094 62.4721 250.949 58.0526 249.842C49.1999 247.625 38.0829 245.575 28.8979 246.18C28.7622 246.188 28.6314 246.144 28.5348 246.057C28.4382 245.969 28.3837 245.845 28.3837 245.713C28.3837 244.385 28.3837 243.106 28.3836 241.874C28.3835 238.58 28.3834 235.618 28.3841 232.915C28.3841 232.78 28.4413 232.648 28.5421 232.55ZM73.1055 253.244L73.1055 243.699C72.9478 243.624 72.7191 243.516 72.4235 243.38C71.8052 243.095 70.894 242.687 69.7261 242.198C67.3901 241.219 64.0285 239.912 59.9308 238.605C51.8556 236.03 40.9419 233.461 29.3972 233.384C29.3967 235.946 29.3968 238.738 29.3969 241.82C29.3969 242.899 29.397 244.012 29.397 245.164C38.645 244.656 49.6411 246.704 58.353 248.886C62.7967 249.998 66.659 251.149 69.4108 252.022C70.7868 252.459 71.8855 252.826 72.6407 253.084C72.814 253.143 72.9692 253.196 73.1055 253.244Z" fill="#0C296E"/>
    <defs>
    <filter id="filter0_f" x="165.036" y="280.176" width="59.245" height="59.245" filterUnits="userSpaceOnUse" color-interpolation-filters="sRGB">
    <feFlood flood-opacity="0" result="BackgroundImageFix"/>
    <feBlend mode="normal" in="SourceGraphic" in2="BackgroundImageFix" result="shape"/>
    <feGaussianBlur stdDeviation="5.10917" result="effect1_foregroundBlur"/>
    </filter>
    <filter id="filter1_f" x="41.1602" y="240.662" width="34.2931" height="15.4057" filterUnits="userSpaceOnUse" color-interpolation-filters="sRGB">
    <feFlood flood-opacity="0" result="BackgroundImageFix"/>
    <feBlend mode="normal" in="SourceGraphic" in2="BackgroundImageFix" result="shape"/>
    <feGaussianBlur stdDeviation="1" result="effect1_foregroundBlur"/>
    </filter>
    </defs>
    </svg>
    